<svg width="186" height="51" viewBox="0 0 186 51" fill="none" xmlns="http://www.w3.org/2000/svg">
<path d="M60.1563 36.8113H55.2031L62.7512 14.9297H68.7126L76.2519 36.8113H71.2987L65.8196 19.9355H65.653L60.1563 36.8113ZM59.8495 28.2112H71.5617V31.8231H59.8495V28.2112Z" fill="#17191C"/>
<path d="M78.6099 36.8103V14.9375H83.1598V23.1606H83.3C83.5017 22.7223 83.791 22.2664 84.1679 21.8106C84.5449 21.3547 85.0446 20.969 85.667 20.6534C86.2807 20.3465 87.0522 20.1887 87.9727 20.1887C89.1649 20.1887 90.2695 20.5043 91.2865 21.1268C92.2946 21.7492 93.1099 22.6872 93.7148 23.9321C94.3197 25.1857 94.6266 26.7462 94.6266 28.631C94.6266 30.4633 94.3285 32.0062 93.7411 33.2598C93.1538 34.5135 92.356 35.469 91.3478 36.109C90.3397 36.7577 89.2088 37.0733 87.9639 37.0733C87.0785 37.0733 86.3333 36.9243 85.7109 36.635C85.0972 36.3457 84.5887 35.9775 84.203 35.5304C83.8085 35.0833 83.5104 34.6362 83.3088 34.1803H83.1072V36.8103H78.6099ZM83.0721 28.6135C83.0721 29.5866 83.2036 30.437 83.4754 31.1646C83.7471 31.8922 84.1416 32.4533 84.6501 32.8566C85.1586 33.2598 85.7898 33.4615 86.5174 33.4615C87.2538 33.4615 87.885 33.2598 88.3935 32.8478C88.9019 32.4358 89.2964 31.8659 89.5594 31.1383C89.8224 30.4107 89.9627 29.5691 89.9627 28.6135C89.9627 27.6667 89.8312 26.8339 89.5682 26.115C89.3052 25.3961 88.9195 24.8351 88.4022 24.423C87.8938 24.0198 87.2626 23.8181 86.5086 23.8181C85.7722 23.8181 85.141 24.011 84.6326 24.4055C84.1241 24.8 83.7296 25.3523 83.4666 26.0712C83.2036 26.79 83.0721 27.6316 83.0721 28.6135Z" fill="#17191C"/>
<path d="M111.02 25.0822L106.856 25.3364C106.786 24.977 106.628 24.6614 106.4 24.3721C106.164 24.0828 105.857 23.8549 105.48 23.6795C105.103 23.5042 104.647 23.4165 104.121 23.4165C103.42 23.4165 102.824 23.5656 102.341 23.8636C101.859 24.1617 101.614 24.5562 101.614 25.0471C101.614 25.4416 101.772 25.766 102.087 26.0378C102.403 26.3095 102.938 26.5287 103.7 26.6865L106.672 27.2826C108.268 27.607 109.46 28.133 110.24 28.8606C111.02 29.5883 111.415 30.5438 111.415 31.7273C111.415 32.8056 111.099 33.7437 110.468 34.559C109.837 35.3743 108.978 36.0055 107.882 36.4526C106.786 36.9084 105.532 37.1276 104.104 37.1276C101.929 37.1276 100.202 36.6717 98.9137 35.7688C97.625 34.857 96.871 33.6209 96.6519 32.0605L101.132 31.8238C101.263 32.49 101.596 32.9897 102.113 33.3316C102.631 33.6735 103.297 33.8489 104.112 33.8489C104.91 33.8489 105.55 33.6911 106.041 33.3842C106.532 33.0774 106.777 32.6741 106.786 32.1832C106.777 31.7712 106.602 31.4293 106.26 31.1663C105.918 30.9033 105.392 30.6929 104.682 30.5526L101.842 29.9828C100.237 29.6584 99.0452 29.1061 98.2649 28.3171C97.4847 27.5281 97.099 26.5199 97.099 25.2926C97.099 24.2406 97.3883 23.3289 97.9581 22.5662C98.5279 21.8035 99.3432 21.2161 100.386 20.8041C101.43 20.392 102.657 20.1816 104.06 20.1816C106.129 20.1816 107.768 20.62 108.96 21.4966C110.126 22.3821 110.819 23.5743 111.02 25.0822Z" fill="#17191C"/>
<path d="M116.281 18.2861C115.606 18.2861 115.027 18.0582 114.545 17.6111C114.063 17.1552 113.826 16.6117 113.826 15.9805C113.826 15.3493 114.063 14.8145 114.545 14.3586C115.027 13.9028 115.606 13.6836 116.281 13.6836C116.956 13.6836 117.534 13.9115 118.017 14.3586C118.499 14.8145 118.736 15.3493 118.736 15.9805C118.736 16.6117 118.499 17.1552 118.017 17.6111C117.534 18.0669 116.956 18.2861 116.281 18.2861ZM113.993 36.8101V20.4076H118.543V36.8188H113.993V36.8101Z" fill="#17191C"/>
<path d="M126.459 27.3255V36.8111H121.909V20.4086H126.248V23.3016H126.441C126.8 22.3461 127.414 21.5921 128.265 21.0311C129.115 20.47 130.158 20.1895 131.377 20.1895C132.516 20.1895 133.507 20.4349 134.357 20.9346C135.208 21.4343 135.865 22.1444 136.33 23.0649C136.794 23.9854 137.031 25.09 137.031 26.3612V36.8111H132.481V27.1765C132.49 26.1683 132.236 25.3881 131.71 24.8183C131.193 24.2484 130.474 23.9679 129.562 23.9679C128.948 23.9679 128.414 24.0994 127.94 24.3624C127.476 24.6254 127.107 25.0111 126.853 25.5108C126.599 26.0193 126.467 26.6242 126.459 27.3255Z" fill="#17191C"/>
<path d="M149.068 20.4089V23.8279H139.188V20.4089H149.068ZM141.432 16.4727H145.982V31.7705C145.982 32.1913 146.043 32.5157 146.175 32.7436C146.306 32.9715 146.481 33.1381 146.718 33.2258C146.946 33.3222 147.218 33.366 147.525 33.366C147.735 33.366 147.954 33.3485 148.165 33.3047C148.375 33.2696 148.542 33.2345 148.656 33.217L149.374 36.6009C149.146 36.6711 148.822 36.7587 148.41 36.8552C147.998 36.9516 147.498 37.013 146.902 37.0305C145.806 37.0743 144.842 36.9253 144.027 36.5922C143.203 36.259 142.563 35.7418 142.107 35.0317C141.651 34.3304 141.423 33.4362 141.432 32.3579V16.4727Z" fill="#17191C"/>
<path d="M156.651 27.3248V36.8103H152.101V14.9375H156.519V23.3009H156.712C157.081 22.3366 157.677 21.5739 158.51 21.0216C159.334 20.4693 160.368 20.1975 161.622 20.1975C162.761 20.1975 163.752 20.443 164.611 20.9427C165.461 21.4336 166.128 22.1437 166.601 23.0642C167.075 23.9847 167.311 25.0893 167.302 26.3692V36.8191H162.753V27.1758C162.761 26.1676 162.507 25.3786 161.99 24.8175C161.473 24.2565 160.754 23.9759 159.825 23.9759C159.202 23.9759 158.659 24.1074 158.185 24.3704C157.712 24.6334 157.344 25.0192 157.072 25.5189C156.791 26.0186 156.66 26.6235 156.651 27.3248Z" fill="#17191C"/>
<path d="M178.086 37.1354C176.394 37.1354 174.947 36.7935 173.729 36.101C172.519 35.4172 171.581 34.4353 170.923 33.1729C170.266 31.9105 169.941 30.4114 169.941 28.6844C169.941 26.9924 170.266 25.5108 170.923 24.2397C171.581 22.9685 172.501 21.9691 173.694 21.259C174.886 20.5489 176.288 20.1895 177.893 20.1895C178.971 20.1895 179.988 20.3648 180.917 20.7067C181.855 21.0486 182.671 21.5746 183.372 22.2584C184.073 22.951 184.617 23.8189 185.011 24.8621C185.406 25.9053 185.599 27.1239 185.599 28.5178V29.7714H171.747V26.9486H181.321C181.321 26.2911 181.18 25.7125 180.891 25.204C180.602 24.6955 180.216 24.301 179.707 24.0117C179.208 23.7224 178.62 23.5822 177.963 23.5822C177.27 23.5822 176.665 23.74 176.131 24.0556C175.596 24.3712 175.184 24.792 174.886 25.3267C174.588 25.8615 174.43 26.4489 174.43 27.0976V29.7802C174.43 30.5955 174.579 31.2968 174.886 31.8842C175.193 32.4716 175.613 32.9274 176.175 33.2518C176.727 33.5762 177.384 33.734 178.147 33.734C178.655 33.734 179.111 33.6638 179.532 33.5236C179.953 33.3833 180.312 33.1641 180.61 32.8836C180.909 32.6031 181.136 32.2524 181.294 31.8404L185.502 32.1209C185.292 33.1291 184.854 34.0145 184.196 34.7684C183.539 35.5224 182.688 36.101 181.654 36.5218C180.637 36.925 179.436 37.1354 178.086 37.1354Z" fill="#17191C"/>
<path d="M48.0319 38.9099L43.0612 40.9087L42.9385 40.9613C42.6842 41.0489 42.4037 41.1103 42.1144 41.1103H37.3453C36.9245 41.1103 36.5213 41.0226 36.1443 40.8648C35.5219 40.6018 34.9871 40.146 34.6364 39.5411L34.4436 39.2079L27.6494 27.4431L29.3326 24.5501C29.9901 23.4104 31.6382 23.4104 32.2957 24.5501L39.7649 37.4897C40.2559 38.34 41.1062 38.9011 42.0618 39.0326H42.0706C42.2021 39.0501 42.3423 39.0589 42.4826 39.0589H47.2517C47.5234 39.0501 47.7952 39.0063 48.0319 38.9099Z" fill="#006258"/>
<path d="M27.9469 10.0664C27.193 10.3995 26.5179 10.9781 26.0533 11.7759L25.9043 12.0301L17.0061 27.4595L12.351 35.5248C12.2458 35.7001 12.1757 35.8842 12.1231 36.0683V36.0771C11.7636 37.3395 12.5526 38.6808 13.8326 38.9876H13.8413C14.0167 39.0315 14.2008 39.049 14.3936 39.049H17.0236H19.1539C19.5046 39.049 19.8465 38.9876 20.1621 38.8824L15.2265 40.8637C14.8495 41.0215 14.4462 41.1092 14.0254 41.1092H9.25637C8.4849 41.1092 7.83617 40.7497 7.41537 40.2237C7.41537 40.2237 7.41537 40.2237 7.41537 40.215C6.8543 39.5049 6.70527 38.4967 7.21374 37.6025L20.9336 13.8273C21.4157 13.0032 22.1083 12.4334 22.8798 12.109L23.0025 12.0564L27.9469 10.0664Z" fill="#006258"/>
<path d="M46.8485 40.968C46.5943 41.0644 46.3313 41.1083 46.0507 41.1083H41.2817C41.1414 41.1083 41.0099 41.0995 40.8784 41.082H40.8696C39.9141 40.9592 39.0637 40.3894 38.5728 39.5478L31.1036 26.6082C30.4461 25.4773 28.8067 25.4685 28.1492 26.5994L23.1785 35.2083L20.6712 39.539C20.303 40.1878 19.7157 40.6699 19.0319 40.9154L18.9705 40.9329C18.6461 41.0469 18.3042 41.0995 17.9623 41.0995H15.832H13.1933C13.0004 41.0995 12.8163 41.082 12.641 41.0381H12.6322C12.3341 40.968 12.0624 40.8365 11.8169 40.6612C11.0454 40.1089 10.6509 39.0919 10.9227 38.1276V38.1188C10.9753 37.9347 11.0454 37.7506 11.1506 37.5753L15.8057 29.51L25.9049 12.0205L26.054 11.7662C26.5186 10.9597 27.1849 10.3986 27.9388 10.0655C28.4648 9.82881 29.0434 9.71484 29.622 9.71484C31.0071 9.71484 32.3923 10.3986 33.1813 11.775L36.8808 18.1747L48.0846 37.5841C48.8473 38.8991 48.1723 40.4946 46.8485 40.968Z" fill="#CFE900"/>
<path d="M46.8487 40.9671C46.5945 41.0635 46.3315 41.1074 46.0509 41.1074H41.2819C41.1416 41.1074 41.0101 41.0986 40.8786 41.0811H40.8698C39.9143 40.9583 39.0639 40.3885 38.573 39.5469L31.1038 26.6073C30.9021 26.2654 30.6128 26.0199 30.2885 25.8884C29.5433 25.5728 28.6053 25.8095 28.1406 26.5985L32.9711 18.2351C33.839 16.7448 35.978 16.7185 36.8722 18.1738L37.3106 18.9277C37.3106 18.9277 37.3193 18.9365 37.3193 18.9452L43.5963 29.8247L48.076 37.5744C48.8475 38.8982 48.1725 40.4937 46.8487 40.9671Z" fill="#799A07"/>
<path opacity="0.2" d="M37.3193 18.9267C36.6355 17.7783 34.9699 17.787 34.2948 18.9442L30.2885 25.8787C29.5433 25.5631 28.6053 25.7998 28.1406 26.5888L32.9711 18.2254C33.839 16.735 35.978 16.7087 36.8722 18.164L37.3193 18.9267Z" fill="#00002D"/>
<path opacity="0.15" d="M29.622 9.71484L11.8169 40.6612C11.0454 40.1089 10.6509 39.0919 10.9227 38.1276V38.1188C10.9753 37.9347 11.0454 37.7506 11.1506 37.5753L15.8057 29.51L25.9049 12.0205L26.054 11.7662C26.5186 10.9597 27.1849 10.3986 27.9388 10.0655C28.4736 9.82881 29.0522 9.71484 29.622 9.71484Z" fill="white"/>
</svg>
